<svg width="72" height="73" viewBox="0 0 72 73" fill="none" xmlns="http://www.w3.org/2000/svg">
<rect y="0.453491" width="72" height="72" rx="36" fill="#F4F5F7"/>
<path d="M29 25.4535H26C25.7348 25.4535 25.4804 25.5588 25.2929 25.7464C25.1054 25.9339 25 26.1883 25 26.4535V46.4535C25 46.7187 25.1054 46.9731 25.2929 47.1606C25.4804 47.3481 25.7348 47.4535 26 47.4535H29V25.4535Z" fill="#4F4F4F"/>
<path d="M31 47.4535H41V25.4535H31V47.4535ZM36 43.4535C35.7348 43.4535 35.4804 43.3481 35.2929 43.1606C35.1054 42.9731 35 42.7187 35 42.4535C35 42.1883 35.1054 41.9339 35.2929 41.7464C35.4804 41.5588 35.7348 41.4535 36 41.4535C36.2652 41.4535 36.5196 41.5588 36.7071 41.7464C36.8946 41.9339 37 42.1883 37 42.4535C37 42.7187 36.8946 42.9731 36.7071 43.1606C36.5196 43.3481 36.2652 43.4535 36 43.4535ZM36 29.4535C36.2652 29.4535 36.5196 29.5588 36.7071 29.7464C36.8946 29.9339 37 30.1883 37 30.4535C37 30.7187 36.8946 30.9731 36.7071 31.1606C36.5196 31.3481 36.2652 31.4535 36 31.4535C35.7348 31.4535 35.4804 31.3481 35.2929 31.1606C35.1054 30.9731 35 30.7187 35 30.4535C35 30.1883 35.1054 29.9339 35.2929 29.7464C35.4804 29.5588 35.7348 29.4535 36 29.4535ZM36 35.4535C36.2652 35.4535 36.5196 35.5588 36.7071 35.7464C36.8946 35.9339 37 36.1883 37 36.4535C37 36.7187 36.8946 36.9731 36.7071 37.1606C36.5196 37.3481 36.2652 37.4535 36 37.4535C35.7348 37.4535 35.4804 37.3481 35.2929 37.1606C35.1054 36.9731 35 36.7187 35 36.4535C35 36.1883 35.1054 35.9339 35.2929 35.7464C35.4804 35.5588 35.7348 35.4535 36 35.4535Z" fill="#333333"/>
<path d="M46 25.4535H43V47.4535H46C46.2652 47.4535 46.5196 47.3481 46.7071 47.1606C46.8946 46.9731 47 46.7187 47 46.4535V26.4535C47 26.1883 46.8946 25.9339 46.7071 25.7464C46.5196 25.5588 46.2652 25.4535 46 25.4535Z" fill="#828282"/>
</svg>
