<svg width="72" height="73" viewBox="0 0 72 73" fill="none" xmlns="http://www.w3.org/2000/svg">
<rect y="0.453491" width="72" height="72" rx="36" fill="#F4F5F7"/>
<g clip-path="url(#clip0_108_2841)">
<path d="M42 34.4535H48L45 30.4535L42 34.4535ZM42 38.4535H48L45 42.4535L42 38.4535Z" fill="#4F4F4F"/>
<path d="M25 24.4535H31V48.4535H25C24.7348 48.4535 24.4804 48.3481 24.2929 48.1606C24.1054 47.9731 24 47.7187 24 47.4535V25.4535C24 25.1883 24.1054 24.9339 24.2929 24.7464C24.4804 24.5588 24.7348 24.4535 25 24.4535Z" fill="#333333"/>
<path d="M33 24.4535H39C39.2652 24.4535 39.5196 24.5588 39.7071 24.7464C39.8946 24.9339 40 25.1883 40 25.4535V47.4535C40 47.7187 39.8946 47.9731 39.7071 48.1606C39.5196 48.3481 39.2652 48.4535 39 48.4535H33V24.4535Z" fill="#828282"/>
</g>
<defs>
<clipPath id="clip0_108_2841">
<rect width="24" height="24" fill="white" transform="translate(24 24.4535)"/>
</clipPath>
</defs>
</svg>
