<svg width="72" height="73" viewBox="0 0 72 73" fill="none" xmlns="http://www.w3.org/2000/svg">
<rect y="0.453491" width="72" height="72" rx="36" fill="#F4F5F7"/>
<path d="M33 34.4535H26C25.7348 34.4535 25.4804 34.3481 25.2929 34.1606C25.1054 33.9731 25 33.7187 25 33.4535V26.4535C25 26.1883 25.1054 25.9339 25.2929 25.7464C25.4804 25.5588 25.7348 25.4535 26 25.4535H33C33.2652 25.4535 33.5196 25.5588 33.7071 25.7464C33.8946 25.9339 34 26.1883 34 26.4535V33.4535C34 33.7187 33.8946 33.9731 33.7071 34.1606C33.5196 34.3481 33.2652 34.4535 33 34.4535Z" fill="#333333"/>
<path d="M33 47.4535H26C25.7348 47.4535 25.4804 47.3481 25.2929 47.1606C25.1054 46.9731 25 46.7187 25 46.4535V39.4535C25 39.1883 25.1054 38.9339 25.2929 38.7464C25.4804 38.5588 25.7348 38.4535 26 38.4535H33C33.2652 38.4535 33.5196 38.5588 33.7071 38.7464C33.8946 38.9339 34 39.1883 34 39.4535V46.4535C34 46.7187 33.8946 46.9731 33.7071 47.1606C33.5196 47.3481 33.2652 47.4535 33 47.4535Z" fill="#333333"/>
<path d="M37 26.4535H47V28.4535H37V26.4535Z" fill="#828282"/>
<path d="M47 39.4535H37V41.4535H47V39.4535Z" fill="#828282"/>
<path d="M47 44.4535H37V46.4535H47V44.4535Z" fill="#4F4F4F"/>
<path d="M47 31.4535H37V33.4535H47V31.4535Z" fill="#4F4F4F"/>
</svg>
